ply
format ascii 1.0
comment Exported by Aspose.3D 24.6.0
element vertex 310
property float x
property float y
property float z
property float nx
property float ny
property float nz
element face 620
property list uchar int vertex_index
end_header
0.011411442421376705 -0.039500001817941666 0.018575578927993774 -0.4400001267592112 -0.5 -0.029057492812474568
0.004472136497497559 -0.039500001817941666 0.009405190125107765 -0.2451645794014136 -0.5 0.36652254064877826
0.011411442421376705 -0.02449999935925007 0.018575578927993774 -0.25161380171775755 -0.7000000000000001 0.08179544210433955
0.004472136497497559 -0.02449999935925007 0.009405190125107765 -0.05496996790170644 -0.7000000000000001 0.2588016688823694
-0.006939306389540434 -0.039500001817941666 0.01082961168140173 0.23380264937877657 -0.4 0.4746960401535034
-0.006939306389540434 -0.02449999935925007 0.01082961168140173 0.1966438375413414 -0.7000000000000001 0.17700622677802993
-0.011411442421376705 -0.039500001817941666 0.021424420177936554 0.4400001267592112 -0.5 0.029057492812474568
-0.011411442421376705 -0.02449999935925007 0.021424420177936554 0.25161380171775777 -0.7000000000000001 -0.08179544210433953
-0.004472136497497559 -0.039500001817941666 0.030594808980822563 0.2451645794014136 -0.5 -0.36652254064877826
-0.004472136497497559 -0.02449999935925007 0.030594808980822563 0.05496996790170644 -0.7000000000000001 -0.2588016688823694
0.006939306389540434 -0.039500001817941666 0.029170388355851173 -0.23380264937877657 -0.4 -0.4746960401535034
0.006939306389540434 -0.02449999935925007 0.029170388355851173 -0.1966438375413414 -0.7000000000000001 -0.17700622677802993
0.006394818425178528 -0.02449999935925007 0.02284715697169304 -0.4613564113775884 -0.5 -0.18633900086084978
0.005663118790835142 -0.02449999935925007 0.024114497005939484 -0.4950391173362729 -0.40000000000000013 -0.33382612466812117
0.004683914128690958 -0.02449999935925007 0.025202013552188873 -0.4148149728775023 -0.4 -0.42945564985275253
0.005663118790835142 -0.02449999935925007 0.015885503962635994 -0.3920525014400478 -0.5000000000000001 0.30637687444686856
0.006394818425178528 -0.02449999935925007 0.01715284399688244 -0.5366214632987972 -0.40000000000000013 0.2618034005165099
0.006847033277153969 -0.02449999935925007 0.018544618040323257 -0.5793269991874691 -0.4 0.14451249390840523
-0.0007316992268897593 -0.02449999935925007 0.01303834654390812 0.06930389503637943 -0.5 0.4927158753077184
0.0007316992268897593 -0.02449999935925007 0.01303834654390812 -0.04158233702182767 -0.4 0.595629525184631
0.002163118915632367 -0.02449999935925007 0.013342604041099548 -0.16451200246810904 -0.4 0.5739681363105772
-0.006394818425178528 -0.02449999935925007 0.01715284399688244 0.4613564113775884 -0.4999999999999999 0.18633900086084978
-0.005663118790835142 -0.02449999935925007 0.015885503962635994 0.4950391173362729 -0.3999999999999999 0.33382612466812117
-0.004683914128690958 -0.02449999935925007 0.01479798648506403 0.4148149728775023 -0.3999999999999999 0.42945564985275253
-0.005663118790835142 -0.02449999935925007 0.024114497005939484 0.3920525014400478 -0.5 -0.30637687444686856
-0.006394818425178528 -0.02449999935925007 0.02284715697169304 0.5366214632987972 -0.3999999999999999 -0.2618034005165099
-0.006847033277153969 -0.02449999935925007 0.02145538106560707 0.5793269991874691 -0.3999999999999999 -0.1445124939084057
0.0007316992268897593 -0.02449999935925007 0.02696165256202221 -0.06930389503637943 -0.5 -0.4927158753077184
-0.0007316992268897593 -0.02449999935925007 0.02696165256202221 0.04158233702182767 -0.4 -0.595629525184631
-0.002163118915632367 -0.02449999935925007 0.02665739506483078 0.16451200246810904 -0.4 -0.5739681363105772
-0.007000000216066837 -0.02449999935925007 0.019999999552965164 0.5967131495475769 -0.3999999999999998 -0.020905692875385254
-0.006847033277153969 -0.02449999935925007 0.018544618040323257 0.5880200743675232 -0.39999999999999986 0.10361478626728103
-0.0035000001080334187 -0.02449999935925007 0.013937822543084621 0.3164614260196684 -0.3999999999999999 0.5063158869743345
-0.002163118915632367 -0.02449999935925007 0.013342604041099548 0.20427699387073509 -0.3999999999999999 0.5610476970672604
0.0035000001080334187 -0.02449999935925007 0.013937822543084621 -0.28025170564651475 -0.4 0.5272215723991391
0.004683914128690958 -0.02449999935925007 0.01479798648506403 -0.3837430596351621 -0.40000000000000013 0.45743292570114114
0.007000000216066837 -0.02449999935925007 0.019999999552965164 -0.5967131495475766 -0.4000000000000002 0.020905692875385285
0.006847033277153969 -0.02449999935925007 0.02145538106560707 -0.5880200743675229 -0.40000000000000013 -0.10361478626728049
0.0035000001080334187 -0.02449999935925007 0.02606217749416828 -0.3164614260196684 -0.4 -0.5063158869743345
0.002163118915632367 -0.02449999935925007 0.02665739506483078 -0.20427699387073509 -0.4 -0.5610476970672604
-0.0035000001080334187 -0.02449999935925007 0.02606217749416828 0.28025170564651475 -0.4 -0.5272215723991391
-0.004683914128690958 -0.02449999935925007 0.025202013552188873 0.3837430596351621 -0.3999999999999999 -0.45743292570114114
0.009848077781498432 0.02449999935925007 0.018263518810272217 -0.4880077242851269 0.49999999999999983 0.10079897195100734
0.009848077781498432 0.039500001817941666 0.018263518810272217 -0.5916630506515518 0.3999999999999999 0.08662610650062497
0.009999999776482582 0.02449999935925007 0.019999999552965164 -0.5977168321609506 0.3999999999999999 0.017431148886680604
0.009999999776482582 0.039500001817941666 0.019999999552965164 -0.49809736013412703 0.49999999999999983 -0.014525957405567164
0.009848077781498432 0.02449999935925007 0.02173648215830326 -0.4930525422096264 0.4999999999999999 -0.07218842208385418
0.009848077781498432 0.039500001817941666 0.02173648215830326 -0.5856092691421523 0.3999999999999999 -0.12095876634120875
0.009396926499903202 0.02449999935925007 0.023420201614499092 -0.47302657365798995 0.49999999999999983 -0.1567093928654983
0.009396926499903202 0.039500001817941666 0.023420201614499092 -0.5557082891464236 0.39999999999999986 -0.22081111669540415
0.008660254068672657 0.02449999935925007 0.02500000037252903 -0.438627948363622 0.49999999999999983 -0.23646883169809976
0.008660254068672657 0.039500001817941666 0.02500000037252903 -0.5089223861694337 0.3999999999999999 -0.3139542341232301
0.007660444360226393 0.02449999935925007 0.026427876204252243 -0.39090181390444434 0.4999999999999999 -0.3090432782967885
0.007660444360226393 0.039500001817941666 0.026427876204252243 -0.44667311906814594 0.3999999999999999 -0.3975579977035524
0.0064278761856257915 0.02449999935925007 0.027660444378852844 -0.33129833141962683 0.4999999999999999 -0.3722275992234548
0.0064278761856257915 0.039500001817941666 0.027660444378852844 -0.37085193395614635 0.3999999999999999 -0.4690821766853335
0.004999999888241291 0.02449999935925007 0.028660254552960396 -0.31395423412323 0.3999999999999999 -0.5089223861694336
0.004999999888241291 0.039500001817941666 0.028660254552960396 -0.2837625980377198 0.3999999999999999 -0.5263535380363467
0.003420201363041997 0.02449999935925007 0.02939692698419094 -0.1840092639128367 0.4999999999999999 -0.4630902409553528
0.003420201363041997 0.039500001817941666 0.02939692698419094 -0.1880512714385987 0.3999999999999999 -0.5676318883895876
0.0017364817904308438 0.02449999935925007 0.02984807826578617 -0.10079897195100784 0.5 -0.48800772428512573
0.0017364817904308438 0.039500001817941666 0.02984807826578617 -0.08662610650062565 0.39999999999999997 -0.5916630506515504
-7.159237448298491E-18 0.02449999935925007 0.029999999329447746 -0.01452595740556717 0.5 -0.49809736013412476
-1.2939200856001562E-17 0.039500001817941666 0.029999999329447746 0.01452595740556713 0.5 -0.49809736013412487
-0.0017364817904308438 0.02449999935925007 0.02984807826578617 0.07218842208385468 0.5 -0.49305254220962524
-0.0017364817904308438 0.039500001817941666 0.02984807826578617 0.12095876634120942 0.4 -0.585609269142151
-0.003420201363041997 0.02449999935925007 0.02939692698419094 0.15670939286549884 0.5 -0.4730265736579895
-0.003420201363041997 0.039500001817941666 0.02939692698419094 0.22081111669540407 0.40000000000000013 -0.5557082891464233
-0.004999999888241291 0.02449999935925007 0.028660254552960396 0.28376259803771975 0.40000000000000013 -0.5263535380363464
-0.004999999888241291 0.039500001817941666 0.028660254552960396 0.31395423412323 0.40000000000000013 -0.5089223861694336
-0.0064278761856257915 0.02449999935925007 0.027660444378852844 0.3090432782967885 0.5000000000000001 -0.39090181390444434
-0.0064278761856257915 0.039500001817941666 0.027660444378852844 0.39755799770355227 0.40000000000000013 -0.4466731190681458
-0.007660444360226393 0.02449999935925007 0.026427876204252243 0.3722275992234548 0.5 -0.33129833141962683
-0.007660444360226393 0.039500001817941666 0.026427876204252243 0.46908217668533325 0.4 -0.37085193395614624
-0.008660254068672657 0.02449999935925007 0.02500000037252903 0.42410198847452796 0.5 -0.26162852843602497
-0.008660254068672657 0.039500001817941666 0.02500000037252903 0.5263535380363464 0.4 -0.28376259803771975
-0.009396926499903202 0.02449999935925007 0.023420201614499092 0.46309024095535256 0.5 -0.184009263912837
-0.009396926499903202 0.039500001817941666 0.023420201614499092 0.5676318883895874 0.4000000000000002 -0.18805127143859865
-0.009848077781498432 0.02449999935925007 0.02173648215830326 0.48800772428512507 0.5000000000000001 -0.10079897195100808
-0.009848077781498432 0.039500001817941666 0.02173648215830326 0.5916630506515503 0.40000000000000013 -0.08662610650062562
-0.009999999776482582 0.02449999935925007 0.019999999552965164 0.5977168321609492 0.40000000000000013 -0.017431148886680604
-0.009999999776482582 0.039500001817941666 0.019999999552965164 0.49809736013412476 0.5 0.01452595740556717
-0.009848077781498432 0.02449999935925007 0.018263518810272217 0.4930525422096246 0.5000000000000001 0.07218842208385493
-0.009848077781498432 0.039500001817941666 0.018263518810272217 0.585609269142151 0.4000000000000002 0.12095876634120942
-0.009396926499903202 0.02449999935925007 0.016579799354076385 0.4730265736579893 0.5000000000000001 0.15670939286549912
-0.009396926499903202 0.039500001817941666 0.016579799354076385 0.5557082891464233 0.4000000000000002 0.22081111669540407
-0.008660254068672657 0.02449999935925007 0.014999999664723873 0.438627948363622 0.5000000000000001 0.23646883169809976
-0.008660254068672657 0.039500001817941666 0.014999999664723873 0.5089223861694336 0.4000000000000002 0.31395423412323
-0.007660444360226393 0.02449999935925007 0.01357212383300066 0.39090181390444434 0.5 0.3090432782967885
-0.007660444360226393 0.039500001817941666 0.01357212383300066 0.4466731190681458 0.40000000000000013 0.39755799770355227
-0.0064278761856257915 0.02449999935925007 0.012339555658400059 0.33129833141962683 0.5 0.3722275992234548
-0.0064278761856257915 0.039500001817941666 0.012339555658400059 0.37085193395614624 0.4 0.46908217668533325
-0.004999999888241291 0.02449999935925007 0.011339746415615082 0.31395423412323 0.40000000000000013 0.5089223861694336
-0.004999999888241291 0.039500001817941666 0.011339746415615082 0.28376259803771975 0.40000000000000013 0.5263535380363464
-0.003420201363041997 0.02449999935925007 0.010603073984384537 0.1840092639128367 0.5 0.4630902409553528
-0.003420201363041997 0.039500001817941666 0.010603073984384537 0.18805127143859865 0.4 0.5676318883895874
-0.0017364817904308438 0.02449999935925007 0.010151922702789307 0.10079897195100784 0.5 0.48800772428512573
-0.0017364817904308438 0.039500001817941666 0.010151922702789307 0.08662610650062562 0.4 0.5916630506515503
-9.608531649777195E-18 0.02449999935925007 0.009999999776482582 0.01452595740556717 0.5 0.49809736013412476
-1.0489906654522859E-17 0.039500001817941666 0.009999999776482582 -0.014525957405567207 0.5 0.49809736013412487
0.0017364817904308438 0.02449999935925007 0.010151922702789307 -0.07218842208385468 0.5 0.49305254220962524
0.0017364817904308438 0.039500001817941666 0.010151922702789307 -0.12095876634120944 0.4 0.5856092691421511
0.003420201363041997 0.02449999935925007 0.010603073984384537 -0.15670939286549884 0.5 0.4730265736579895
0.003420201363041997 0.039500001817941666 0.010603073984384537 -0.22081111669540415 0.4 0.5557082891464236
0.004999999888241291 0.02449999935925007 0.011339746415615082 -0.28376259803771975 0.4 0.5263535380363464
0.004999999888241291 0.039500001817941666 0.011339746415615082 -0.3139542341232301 0.3999999999999999 0.5089223861694337
0.0064278761856257915 0.02449999935925007 0.012339555658400059 -0.3090432782967885 0.4999999999999999 0.39090181390444434
0.0064278761856257915 0.039500001817941666 0.012339555658400059 -0.3975579977035524 0.3999999999999999 0.44667311906814594
0.007660444360226393 0.02449999935925007 0.01357212383300066 -0.3722275992234548 0.4999999999999999 0.33129833141962683
0.007660444360226393 0.039500001817941666 0.01357212383300066 -0.4690821766853335 0.3999999999999999 0.37085193395614635
0.008660254068672657 0.02449999935925007 0.014999999664723873 -0.42410198847452796 0.4999999999999999 0.26162852843602497
0.008660254068672657 0.039500001817941666 0.014999999664723873 -0.5263535380363467 0.3999999999999999 0.2837625980377198
0.009396926499903202 0.02449999935925007 0.016579799354076385 -0.4630902409553532 0.4999999999999999 0.18400926391283615
0.009396926499903202 0.039500001817941666 0.016579799354076385 -0.5676318883895876 0.3999999999999999 0.1880512714385987
0.007000000216066837 0.02449999935925007 0.019999999552965164 -0.4262236782482705 0.5714285714285713 -0.014932637768132345
0.006847033277153969 0.02449999935925007 0.02145538106560707 -0.482772499322892 0.49999999999999983 -0.1204270782570039
0.006394818425178528 0.02449999935925007 0.02284715697169304 -0.447184552748998 0.5 -0.218169500430425
0.005663118790835142 0.02449999935925007 0.024114497005939484 -0.3920525014400482 0.5 -0.3063768744468689
0.004683914128690958 0.02449999935925007 0.025202013552188873 -0.31978588302930194 0.5 -0.3811941047509511
0.0035000001080334187 0.02449999935925007 0.02606217749416828 -0.20017978974751063 0.5714285714285714 -0.3765868374279567
0.002163118915632367 0.02449999935925007 0.02665739506483078 -0.13709333539009094 0.5 -0.47830678025881446
0.0007316992268897593 0.02449999935925007 0.02696165256202221 -0.034651947518189744 0.5 -0.49635793765385944
-0.0007316992268897593 0.02449999935925007 0.02696165256202221 0.06930389503637949 0.5 -0.4927158753077189
-0.002163118915632367 0.02449999935925007 0.02665739506483078 0.17023082822561264 0.5 -0.4675397475560506
-0.0035000001080334187 0.02449999935925007 0.02606217749416828 0.22604387572833468 0.5714285714285714 -0.3616542049816676
-0.004683914128690958 0.02449999935925007 0.025202013552188873 0.34567914406458533 0.5 -0.3578797082106272
-0.005663118790835142 0.02449999935925007 0.024114497005939484 0.41253259778022766 0.5000000000000001 -0.27818843722343445
-0.006394818425178528 0.02449999935925007 0.02284715697169304 0.46135641137758887 0.5000000000000001 -0.18633900086085
-0.006847033277153969 0.02449999935925007 0.02145538106560707 0.4900167286396022 0.5 -0.08634565522273407
-0.007000000216066837 0.02449999935925007 0.019999999552965164 0.42622367824826857 0.5714285714285714 0.014932637768132345
-0.006847033277153969 0.02449999935925007 0.018544618040323257 0.4827724993228908 0.5 0.12042707825700467
-0.006394818425178528 0.02449999935925007 0.01715284399688244 0.447184552748998 0.5 0.218169500430425
-0.005663118790835142 0.02449999935925007 0.015885503962635994 0.3920525014400482 0.5 0.3063768744468689
-0.004683914128690958 0.02449999935925007 0.01479798648506403 0.31978588302930194 0.5 0.3811941047509511
-0.0035000001080334187 0.02449999935925007 0.013937822543084621 0.20017978974751063 0.5714285714285714 0.3765868374279567
-0.002163118915632367 0.02449999935925007 0.013342604041099548 0.13709333539009094 0.5 0.47830678025881446
-0.0007316992268897593 0.02449999935925007 0.01303834654390812 0.034651947518189744 0.5 0.49635793765385944
0.0007316992268897593 0.02449999935925007 0.01303834654390812 -0.06930389503637949 0.5 0.4927158753077189
0.002163118915632367 0.02449999935925007 0.013342604041099548 -0.17023082822561264 0.5 0.4675397475560506
0.0035000001080334187 0.02449999935925007 0.013937822543084621 -0.22604387572833468 0.5714285714285714 0.3616542049816676
0.004683914128690958 0.02449999935925007 0.01479798648506403 -0.34567914406458533 0.5 0.3578797082106272
0.005663118790835142 0.02449999935925007 0.015885503962635994 -0.41253259778022766 0.5 0.27818843722343445
0.006394818425178528 0.02449999935925007 0.01715284399688244 -0.46135641137758887 0.4999999999999999 0.18633900086085
0.006847033277153969 0.02449999935925007 0.018544618040323257 -0.49001672863960344 0.4999999999999999 0.0863456552227333
-0.006847033277153969 8.881783998477905E-18 0.02145538106560707 0.9727892279624939 2.471988850084531E-16 -0.20677273347973824
-0.007000000216066837 8.881783998477905E-18 0.019999999552965164 0.9945219159126282 2.674654033802284E-16 0
-0.006847033277153969 8.881783998477905E-18 0.018544618040323257 0.9727892279624939 2.0641634853400695E-16 0.20677273347973824
-0.006394818425178528 8.881783998477905E-18 0.01715284399688244 0.9085409641265869 2.119361534371679E-16 0.404508501291275
-0.005663118790835142 8.881783998477905E-18 0.015885503962635994 0.8045850992202759 1.6597944341252492E-16 0.5845653116703033
-0.004683914128690958 8.881783998477905E-18 0.01479798648506403 0.6654650270938873 1.7525608869384992E-16 0.7390738129615784
-0.0035000001080334187 8.881783998477905E-18 0.013937822543084621 0.4972609430551529 1.150598582999416E-16 0.8612812161445618
-0.002163118915632367 8.881783998477905E-18 0.013342604041099548 0.3073241636157036 6.583949999957204E-17 0.9458465278148651
-0.0007316992268897593 8.881783998477905E-18 0.01303834654390812 0.10395584255456924 3.4809494498249055E-17 0.9890738129615784
0.0007316992268897593 8.881783998477905E-18 0.01303834654390812 -0.10395584255456924 -3.664964324620323E-17 0.9890738129615784
0.002163118915632367 8.881783998477905E-18 0.013342604041099548 -0.3073241636157036 -7.119910083546018E-17 0.9458465278148651
0.0035000001080334187 8.881783998477905E-18 0.013937822543084621 -0.4972609430551529 -1.0612601196729992E-16 0.8612812161445618
0.004683914128690958 8.881783998477905E-18 0.01479798648506403 -0.6654650270938873 -1.7280387426908202E-16 0.7390738129615784
0.005663118790835142 8.881783998477905E-18 0.015885503962635994 -0.8045850992202759 -1.840781066872559E-16 0.5845653116703033
0.006394818425178528 8.881783998477905E-18 0.01715284399688244 -0.9085409641265869 -1.97685706425601E-16 0.404508501291275
0.006847033277153969 8.881783998477905E-18 0.018544618040323257 -0.9727892279624939 -2.237641766580011E-16 0.20677273347973824
0.007000000216066837 8.881783998477905E-18 0.019999999552965164 -0.9945219159126282 -2.263887303032182E-16 0
0.006847033277153969 8.881783998477905E-18 0.02145538106560707 -0.9727892279624939 -2.181148661523239E-16 -0.20677273347973824
0.006394818425178528 8.881783998477905E-18 0.02284715697169304 -0.9085409641265869 -2.088193015960286E-16 -0.404508501291275
0.005663118790835142 8.881783998477905E-18 0.024114497005939484 -0.8045850992202759 -1.7601596106850577E-16 -0.5845653116703033
0.004683914128690958 8.881783998477905E-18 0.025202013552188873 -0.6654650270938873 -1.2911692247841245E-16 -0.7390738129615784
0.0035000001080334187 8.881783998477905E-18 0.02606217749416828 -0.4972609430551529 -1.0389165265191386E-16 -0.8612812161445618
0.002163118915632367 8.881783998477905E-18 0.02665739506483078 -0.3073241636157036 -6.602022062757796E-17 -0.9458465278148651
0.0007316992268897593 8.881783998477905E-18 0.02696165256202221 -0.10395584255456924 -2.1468410147453572E-17 -0.9890738129615784
-0.0007316992268897593 8.881783998477905E-18 0.02696165256202221 0.10395584255456924 2.1468410147453572E-17 -0.9890738129615784
-0.002163118915632367 8.881783998477905E-18 0.02665739506483078 0.3073241636157036 6.096731065227395E-17 -0.9458465278148651
-0.0035000001080334187 8.881783998477905E-18 0.02606217749416828 0.4972609430551529 9.791103094403707E-17 -0.8612812161445618
-0.004683914128690958 8.881783998477905E-18 0.025202013552188873 0.6654650270938873 1.500316835468183E-16 -0.7390738129615784
-0.005663118790835142 8.881783998477905E-18 0.024114497005939484 0.8045850992202759 1.752909118947309E-16 -0.5845653116703033
-0.006394818425178528 8.881783998477905E-18 0.02284715697169304 0.9085409641265869 2.1392921534461236E-16 -0.404508501291275
-0.013000000268220901 -0.027000000700354576 0.006000000052154064 0.4472135901451111 -0.22360679507255554 -0.5854101926088333
-0.013000000268220901 -0.032999999821186066 0.006000000052154064 0.17888543605804444 0.3577708721160889 -0.6683281540870667
-0.007000000216066837 -0.027000000700354576 0.006000000052154064 -0.17888543605804444 -0.3577708721160889 -0.6683281540870667
-0.007000000216066837 -0.032999999821186066 0.006000000052154064 -0.4472135901451111 0.22360679507255554 -0.5854101926088333
-0.004000000189989805 -0.024000000208616257 0 -0.2555506229400635 -0.12777531147003174 -0.763091538633619
-0.01600000075995922 -0.024000000208616257 0 0.12777531147003174 -0.2555506229400635 -0.763091538633619
-0.01600000075995922 -0.035999998450279236 0 0.3577708721160889 0.17888543605804444 -0.6683281540870667
-0.004000000189989805 -0.035999998450279236 0 -0.11180339753627777 0.22360679507255554 -0.7927050963044167
-0.013000000268220901 -0.007000000216066837 0.006000000052154064 0.4472135901451111 -0.22360679507255554 -0.5854101926088333
-0.013000000268220901 -0.013000000268220901 0.006000000052154064 0.17888543605804444 0.3577708721160889 -0.6683281540870667
-0.007000000216066837 -0.007000000216066837 0.006000000052154064 -0.17888543605804444 -0.3577708721160889 -0.6683281540870667
-0.007000000216066837 -0.013000000268220901 0.006000000052154064 -0.4472135901451111 0.22360679507255554 -0.5854101926088333
-0.004000000189989805 -0.004000000189989805 0 -0.2555506229400635 -0.12777531147003174 -0.763091538633619
-0.01600000075995922 -0.004000000189989805 0 0.12777531147003174 -0.2555506229400635 -0.763091538633619
-0.01600000075995922 -0.01600000075995922 0 0.29814239343007404 0.14907119671503702 -0.7236067950725555
-0.004000000189989805 -0.01600000075995922 0 -0.11180339753627777 0.22360679507255554 -0.7927050963044167
-0.013000000268220901 0.013000000268220901 0.006000000052154064 0.4472135901451111 -0.22360679507255554 -0.5854101926088333
-0.013000000268220901 0.007000000216066837 0.006000000052154064 0.17888543605804444 0.3577708721160889 -0.6683281540870667
-0.007000000216066837 0.013000000268220901 0.006000000052154064 -0.17888543605804444 -0.3577708721160889 -0.6683281540870667
-0.007000000216066837 0.007000000216066837 0.006000000052154064 -0.4472135901451111 0.22360679507255554 -0.5854101926088333
-0.004000000189989805 0.01600000075995922 0 -0.2555506229400635 -0.12777531147003174 -0.763091538633619
-0.01600000075995922 0.01600000075995922 0 0.12777531147003174 -0.2555506229400635 -0.763091538633619
-0.01600000075995922 0.004000000189989805 0 0.2555506229400635 0.12777531147003174 -0.763091538633619
-0.004000000189989805 0.004000000189989805 0 -0.11180339753627777 0.22360679507255554 -0.7927050963044167
-0.013000000268220901 0.032999999821186066 0.006000000052154064 0.4472135901451111 -0.22360679507255554 -0.5854101926088333
-0.013000000268220901 0.027000000700354576 0.006000000052154064 0.17888543605804444 0.3577708721160889 -0.6683281540870667
-0.007000000216066837 0.032999999821186066 0.006000000052154064 -0.17888543605804444 -0.3577708721160889 -0.6683281540870667
-0.007000000216066837 0.027000000700354576 0.006000000052154064 -0.4472135901451111 0.22360679507255554 -0.5854101926088333
-0.004000000189989805 0.035999998450279236 0 -0.2555506229400635 -0.12777531147003174 -0.763091538633619
-0.01600000075995922 0.035999998450279236 0 0.17888543605804444 -0.3577708721160889 -0.6683281540870667
-0.01600000075995922 0.024000000208616257 0 0.29814239343007404 0.14907119671503702 -0.7236067950725555
-0.004000000189989805 0.024000000208616257 0 -0.11180339753627777 0.22360679507255554 -0.7927050963044167
0.007000000216066837 -0.027000000700354576 0.006000000052154064 0.4472135901451111 -0.22360679507255554 -0.5854101926088333
0.007000000216066837 -0.032999999821186066 0.006000000052154064 0.17888543605804444 0.3577708721160889 -0.6683281540870667
0.013000000268220901 -0.027000000700354576 0.006000000052154064 -0.17888543605804444 -0.3577708721160889 -0.6683281540870667
0.013000000268220901 -0.032999999821186066 0.006000000052154064 -0.4472135901451111 0.22360679507255554 -0.5854101926088333
0.01600000075995922 -0.024000000208616257 0 -0.29814239343007404 -0.14907119671503702 -0.7236067950725555
0.004000000189989805 -0.024000000208616257 0 0.11180339753627777 -0.22360679507255554 -0.7927050963044167
0.004000000189989805 -0.035999998450279236 0 0.29814239343007404 0.14907119671503702 -0.7236067950725555
0.01600000075995922 -0.035999998450279236 0 -0.17888543605804444 0.3577708721160889 -0.6683281540870667
0.007000000216066837 -0.007000000216066837 0.006000000052154064 0.4472135901451111 -0.22360679507255554 -0.5854101926088333
0.007000000216066837 -0.013000000268220901 0.006000000052154064 0.17888543605804444 0.3577708721160889 -0.6683281540870667
0.013000000268220901 -0.007000000216066837 0.006000000052154064 -0.17888543605804444 -0.3577708721160889 -0.6683281540870667
0.013000000268220901 -0.013000000268220901 0.006000000052154064 -0.4472135901451111 0.22360679507255554 -0.5854101926088333
0.01600000075995922 -0.004000000189989805 0 -0.2555506229400635 -0.12777531147003174 -0.763091538633619
0.004000000189989805 -0.004000000189989805 0 0.11180339753627777 -0.22360679507255554 -0.7927050963044167
0.004000000189989805 -0.01600000075995922 0 0.2555506229400635 0.12777531147003174 -0.763091538633619
0.01600000075995922 -0.01600000075995922 0 -0.12777531147003174 0.2555506229400635 -0.763091538633619
0.007000000216066837 0.013000000268220901 0.006000000052154064 0.4472135901451111 -0.22360679507255554 -0.5854101926088333
0.007000000216066837 0.007000000216066837 0.006000000052154064 0.17888543605804444 0.3577708721160889 -0.6683281540870667
0.013000000268220901 0.013000000268220901 0.006000000052154064 -0.17888543605804444 -0.3577708721160889 -0.6683281540870667
0.013000000268220901 0.007000000216066837 0.006000000052154064 -0.4472135901451111 0.22360679507255554 -0.5854101926088333
0.01600000075995922 0.01600000075995922 0 -0.29814239343007404 -0.14907119671503702 -0.7236067950725555
0.004000000189989805 0.01600000075995922 0 0.11180339753627777 -0.22360679507255554 -0.7927050963044167
0.004000000189989805 0.004000000189989805 0 0.2555506229400635 0.12777531147003174 -0.763091538633619
0.01600000075995922 0.004000000189989805 0 -0.12777531147003174 0.2555506229400635 -0.763091538633619
0.007000000216066837 0.032999999821186066 0.006000000052154064 0.4472135901451111 -0.22360679507255554 -0.5854101926088333
0.007000000216066837 0.027000000700354576 0.006000000052154064 0.17888543605804444 0.3577708721160889 -0.6683281540870667
0.013000000268220901 0.032999999821186066 0.006000000052154064 -0.17888543605804444 -0.3577708721160889 -0.6683281540870667
0.013000000268220901 0.027000000700354576 0.006000000052154064 -0.4472135901451111 0.22360679507255554 -0.5854101926088333
0.01600000075995922 0.035999998450279236 0 -0.3577708721160889 -0.17888543605804444 -0.6683281540870667
0.004000000189989805 0.035999998450279236 0 0.12777531147003174 -0.2555506229400635 -0.763091538633619
0.004000000189989805 0.024000000208616257 0 0.2555506229400635 0.12777531147003174 -0.763091538633619
0.01600000075995922 0.024000000208616257 0 -0.12777531147003174 0.2555506229400635 -0.763091538633619
-0.012500000186264515 0.027499999850988388 0.04399999976158142 -0.4472135901451111 -0.22360679507255554 0.5854101926088333
-0.012500000186264515 0.032499998807907104 0.04399999976158142 -0.17888543605804444 0.3577708721160889 0.6683281540870667
-0.007499999832361937 0.027499999850988388 0.04399999976158142 0.17888543605804444 -0.3577708721160889 0.6683281540870667
-0.007499999832361937 0.032499998807907104 0.04399999976158142 0.4472135901451111 0.22360679507255554 0.5854101926088333
-0.004999999888241291 0.02500000037252903 0.039000000804662704 0.2555506229400635 -0.12777531147003174 0.763091538633619
-0.014999999664723873 0.02500000037252903 0.039000000804662704 -0.12777531147003174 -0.2555506229400635 0.763091538633619
-0.014999999664723873 0.03500000014901161 0.039000000804662704 -0.3577708721160889 0.17888543605804444 0.6683281540870667
-0.004999999888241291 0.03500000014901161 0.039000000804662704 0.11180339753627777 0.22360679507255554 0.7927050963044167
-0.012500000186264515 0.007499999832361937 0.04399999976158142 -0.4472135901451111 -0.22360679507255554 0.5854101926088333
-0.012500000186264515 0.012500000186264515 0.04399999976158142 -0.17888543605804444 0.3577708721160889 0.6683281540870667
-0.007499999832361937 0.007499999832361937 0.04399999976158142 0.17888543605804444 -0.3577708721160889 0.6683281540870667
-0.007499999832361937 0.012500000186264515 0.04399999976158142 0.4472135901451111 0.22360679507255554 0.5854101926088333
-0.004999999888241291 0.004999999888241291 0.039000000804662704 0.2555506229400635 -0.12777531147003174 0.763091538633619
-0.014999999664723873 0.004999999888241291 0.039000000804662704 -0.12777531147003174 -0.2555506229400635 0.763091538633619
-0.014999999664723873 0.014999999664723873 0.039000000804662704 -0.29814239343007404 0.14907119671503702 0.7236067950725555
-0.004999999888241291 0.014999999664723873 0.039000000804662704 0.11180339753627777 0.22360679507255554 0.7927050963044167
-0.012500000186264515 -0.012500000186264515 0.04399999976158142 -0.4472135901451111 -0.22360679507255554 0.5854101926088333
-0.012500000186264515 -0.007499999832361937 0.04399999976158142 -0.17888543605804444 0.3577708721160889 0.6683281540870667
-0.007499999832361937 -0.012500000186264515 0.04399999976158142 0.17888543605804444 -0.3577708721160889 0.6683281540870667
-0.007499999832361937 -0.007499999832361937 0.04399999976158142 0.4472135901451111 0.22360679507255554 0.5854101926088333
-0.004999999888241291 -0.014999999664723873 0.039000000804662704 0.2555506229400635 -0.12777531147003174 0.763091538633619
-0.014999999664723873 -0.014999999664723873 0.039000000804662704 -0.12777531147003174 -0.2555506229400635 0.763091538633619
-0.014999999664723873 -0.004999999888241291 0.039000000804662704 -0.2555506229400635 0.12777531147003174 0.763091538633619
-0.004999999888241291 -0.004999999888241291 0.039000000804662704 0.11180339753627777 0.22360679507255554 0.7927050963044167
-0.012500000186264515 -0.032499998807907104 0.04399999976158142 -0.4472135901451111 -0.22360679507255554 0.5854101926088333
-0.012500000186264515 -0.027499999850988388 0.04399999976158142 -0.17888543605804444 0.3577708721160889 0.6683281540870667
-0.007499999832361937 -0.032499998807907104 0.04399999976158142 0.17888543605804444 -0.3577708721160889 0.6683281540870667
-0.007499999832361937 -0.027499999850988388 0.04399999976158142 0.4472135901451111 0.22360679507255554 0.5854101926088333
-0.004999999888241291 -0.03500000014901161 0.039000000804662704 0.2555506229400635 -0.12777531147003174 0.763091538633619
-0.014999999664723873 -0.03500000014901161 0.039000000804662704 -0.17888543605804444 -0.3577708721160889 0.6683281540870667
-0.014999999664723873 -0.02500000037252903 0.039000000804662704 -0.29814239343007404 0.14907119671503702 0.7236067950725555
-0.004999999888241291 -0.02500000037252903 0.039000000804662704 0.11180339753627777 0.22360679507255554 0.7927050963044167
0.007499999832361937 0.027499999850988388 0.04399999976158142 -0.4472135901451111 -0.22360679507255554 0.5854101926088333
0.007499999832361937 0.032499998807907104 0.04399999976158142 -0.17888543605804444 0.3577708721160889 0.6683281540870667
0.012500000186264515 0.027499999850988388 0.04399999976158142 0.17888543605804444 -0.3577708721160889 0.6683281540870667
0.012500000186264515 0.032499998807907104 0.04399999976158142 0.4472135901451111 0.22360679507255554 0.5854101926088333
0.014999999664723873 0.02500000037252903 0.039000000804662704 0.29814239343007404 -0.14907119671503702 0.7236067950725555
0.004999999888241291 0.02500000037252903 0.039000000804662704 -0.11180339753627777 -0.22360679507255554 0.7927050963044167
0.004999999888241291 0.03500000014901161 0.039000000804662704 -0.29814239343007404 0.14907119671503702 0.7236067950725555
0.014999999664723873 0.03500000014901161 0.039000000804662704 0.17888543605804444 0.3577708721160889 0.6683281540870667
0.007499999832361937 0.007499999832361937 0.04399999976158142 -0.4472135901451111 -0.22360679507255554 0.5854101926088333
0.007499999832361937 0.012500000186264515 0.04399999976158142 -0.17888543605804444 0.3577708721160889 0.6683281540870667
0.012500000186264515 0.007499999832361937 0.04399999976158142 0.17888543605804444 -0.3577708721160889 0.6683281540870667
0.012500000186264515 0.012500000186264515 0.04399999976158142 0.4472135901451111 0.22360679507255554 0.5854101926088333
0.014999999664723873 0.004999999888241291 0.039000000804662704 0.2555506229400635 -0.12777531147003174 0.763091538633619
0.004999999888241291 0.004999999888241291 0.039000000804662704 -0.11180339753627777 -0.22360679507255554 0.7927050963044167
0.004999999888241291 0.014999999664723873 0.039000000804662704 -0.2555506229400635 0.12777531147003174 0.763091538633619
0.014999999664723873 0.014999999664723873 0.039000000804662704 0.12777531147003174 0.2555506229400635 0.763091538633619
0.007499999832361937 -0.012500000186264515 0.04399999976158142 -0.4472135901451111 -0.22360679507255554 0.5854101926088333
0.007499999832361937 -0.007499999832361937 0.04399999976158142 -0.17888543605804444 0.3577708721160889 0.6683281540870667
0.012500000186264515 -0.012500000186264515 0.04399999976158142 0.17888543605804444 -0.3577708721160889 0.6683281540870667
0.012500000186264515 -0.007499999832361937 0.04399999976158142 0.4472135901451111 0.22360679507255554 0.5854101926088333
0.014999999664723873 -0.014999999664723873 0.039000000804662704 0.29814239343007404 -0.14907119671503702 0.7236067950725555
0.004999999888241291 -0.014999999664723873 0.039000000804662704 -0.11180339753627777 -0.22360679507255554 0.7927050963044167
0.004999999888241291 -0.004999999888241291 0.039000000804662704 -0.2555506229400635 0.12777531147003174 0.763091538633619
0.014999999664723873 -0.004999999888241291 0.039000000804662704 0.12777531147003174 0.2555506229400635 0.763091538633619
0.007499999832361937 -0.032499998807907104 0.04399999976158142 -0.4472135901451111 -0.22360679507255554 0.5854101926088333
0.007499999832361937 -0.027499999850988388 0.04399999976158142 -0.17888543605804444 0.3577708721160889 0.6683281540870667
0.012500000186264515 -0.032499998807907104 0.04399999976158142 0.17888543605804444 -0.3577708721160889 0.6683281540870667
0.012500000186264515 -0.027499999850988388 0.04399999976158142 0.4472135901451111 0.22360679507255554 0.5854101926088333
0.014999999664723873 -0.03500000014901161 0.039000000804662704 0.3577708721160889 -0.17888543605804444 0.6683281540870667
0.004999999888241291 -0.03500000014901161 0.039000000804662704 -0.12777531147003174 -0.2555506229400635 0.763091538633619
0.004999999888241291 -0.02500000037252903 0.039000000804662704 -0.2555506229400635 0.12777531147003174 0.763091538633619
0.014999999664723873 -0.02500000037252903 0.039000000804662704 0.12777531147003174 0.2555506229400635 0.763091538633619
-0.019500000402331352 -0.039500001817941666 0 -0.08333333333333333 -0.3333333333333333 -0.5833333333333333
-0.019500000402331352 0.039500001817941666 0 -0.10526315789473684 0.5789473684210527 -0.3157894736842105
-0.019500000402331352 -0.039500001817941666 0.039000000804662704 -0.18181818181818182 -0.2727272727272727 0.5454545454545454
-0.019500000402331352 0.039500001817941666 0.039000000804662704 -0.05263157894736843 0.5789473684210527 0.3684210526315789
0.019500000402331352 -0.039500001817941666 0 0.16666666666666666 -0.25 -0.5833333333333333
0.019500000402331352 -0.039500001817941666 0.039000000804662704 0.07692307692307693 -0.3076923076923077 0.6153846153846154
0.019500000402331352 0.039500001817941666 0 0.04999999999999954 0.55 -0.4
0.019500000402331352 0.039500001817941666 0.039000000804662704 0.09999999999999953 0.55 0.35000000000000003
3 0 1 2
3 2 1 3
3 1 4 3
3 3 4 5
3 4 6 5
3 5 6 7
3 6 8 7
3 7 8 9
3 8 10 9
3 9 10 11
3 10 0 11
3 11 0 2
3 2 12 11
3 11 12 13
3 11 13 14
3 3 15 2
3 2 15 16
3 2 16 17
3 5 18 3
3 3 18 19
3 3 19 20
3 7 21 5
3 5 21 22
3 5 22 23
3 9 24 7
3 7 24 25
3 7 25 26
3 11 27 9
3 9 27 28
3 9 28 29
3 26 30 7
3 7 30 31
3 7 31 21
3 23 32 5
3 5 32 33
3 5 33 18
3 20 34 3
3 3 34 35
3 3 35 15
3 17 36 2
3 2 36 37
3 2 37 12
3 14 38 11
3 11 38 39
3 11 39 27
3 29 40 9
3 9 40 41
3 9 41 24
3 42 43 44
3 44 43 45
3 44 45 46
3 46 45 47
3 46 47 48
3 48 47 49
3 48 49 50
3 50 49 51
3 50 51 52
3 52 51 53
3 52 53 54
3 54 53 55
3 54 55 56
3 56 55 57
3 56 57 58
3 58 57 59
3 58 59 60
3 60 59 61
3 60 61 62
3 62 61 63
3 62 63 64
3 64 63 65
3 64 65 66
3 66 65 67
3 66 67 68
3 68 67 69
3 68 69 70
3 70 69 71
3 70 71 72
3 72 71 73
3 72 73 74
3 74 73 75
3 74 75 76
3 76 75 77
3 76 77 78
3 78 77 79
3 78 79 80
3 80 79 81
3 80 81 82
3 82 81 83
3 82 83 84
3 84 83 85
3 84 85 86
3 86 85 87
3 86 87 88
3 88 87 89
3 88 89 90
3 90 89 91
3 90 91 92
3 92 91 93
3 92 93 94
3 94 93 95
3 94 95 96
3 96 95 97
3 96 97 98
3 98 97 99
3 98 99 100
3 100 99 101
3 100 101 102
3 102 101 103
3 102 103 104
3 104 103 105
3 104 105 106
3 106 105 107
3 106 107 108
3 108 107 109
3 108 109 110
3 110 109 111
3 110 111 112
3 112 111 113
3 112 113 42
3 42 113 43
3 42 44 114
3 114 44 46
3 114 46 115
3 115 46 48
3 115 48 116
3 116 48 50
3 116 50 117
3 117 50 52
3 117 52 118
3 118 52 54
3 118 54 119
3 119 54 56
3 119 56 58
3 119 58 120
3 120 58 60
3 120 60 121
3 121 60 62
3 121 62 122
3 122 62 64
3 122 64 123
3 123 64 66
3 123 66 124
3 124 66 68
3 124 68 70
3 124 70 125
3 125 70 72
3 125 72 126
3 126 72 74
3 126 74 127
3 127 74 76
3 127 76 128
3 128 76 78
3 128 78 129
3 129 78 80
3 129 80 82
3 129 82 130
3 130 82 84
3 130 84 131
3 131 84 86
3 131 86 132
3 132 86 88
3 132 88 133
3 133 88 90
3 133 90 134
3 134 90 92
3 134 92 94
3 134 94 135
3 135 94 96
3 135 96 136
3 136 96 98
3 136 98 137
3 137 98 100
3 137 100 138
3 138 100 102
3 138 102 139
3 139 102 104
3 139 104 106
3 139 106 140
3 140 106 108
3 140 108 141
3 141 108 110
3 141 110 142
3 142 110 112
3 142 112 143
3 143 112 42
3 143 42 114
3 26 144 30
3 30 144 145
3 30 145 31
3 31 145 146
3 31 146 21
3 21 146 147
3 21 147 22
3 22 147 148
3 22 148 23
3 23 148 149
3 23 149 32
3 32 149 150
3 32 150 33
3 33 150 151
3 33 151 18
3 18 151 152
3 18 152 19
3 19 152 153
3 19 153 20
3 20 153 154
3 20 154 34
3 34 154 155
3 34 155 35
3 35 155 156
3 35 156 15
3 15 156 157
3 15 157 16
3 16 157 158
3 16 158 17
3 17 158 159
3 17 159 36
3 36 159 160
3 36 160 37
3 37 160 161
3 37 161 12
3 12 161 162
3 12 162 13
3 13 162 163
3 13 163 14
3 14 163 164
3 14 164 38
3 38 164 165
3 38 165 39
3 39 165 166
3 39 166 27
3 27 166 167
3 27 167 28
3 28 167 168
3 28 168 29
3 29 168 169
3 29 169 40
3 40 169 170
3 40 170 41
3 41 170 171
3 41 171 24
3 24 171 172
3 24 172 25
3 25 172 173
3 25 173 26
3 26 173 144
3 115 161 114
3 114 161 160
3 114 160 143
3 143 160 159
3 143 159 142
3 142 159 158
3 142 158 141
3 141 158 157
3 141 157 140
3 140 157 156
3 140 156 139
3 139 156 155
3 139 155 138
3 138 155 154
3 138 154 137
3 137 154 153
3 137 153 136
3 136 153 152
3 136 152 135
3 135 152 151
3 135 151 134
3 134 151 150
3 134 150 133
3 133 150 149
3 133 149 132
3 132 149 148
3 132 148 131
3 131 148 147
3 131 147 130
3 130 147 146
3 130 146 129
3 129 146 145
3 129 145 128
3 128 145 144
3 128 144 127
3 127 144 173
3 127 173 126
3 126 173 172
3 126 172 125
3 125 172 171
3 125 171 124
3 124 171 170
3 124 170 123
3 123 170 169
3 123 169 122
3 122 169 168
3 122 168 121
3 121 168 167
3 121 167 120
3 120 167 166
3 120 166 119
3 119 166 165
3 119 165 118
3 118 165 164
3 118 164 117
3 117 164 163
3 117 163 116
3 116 163 162
3 116 162 115
3 115 162 161
3 174 175 176
3 176 175 177
3 178 179 176
3 176 179 174
3 179 180 174
3 174 180 175
3 180 181 175
3 175 181 177
3 181 178 177
3 177 178 176
3 182 183 184
3 184 183 185
3 186 187 184
3 184 187 182
3 187 188 182
3 182 188 183
3 188 189 183
3 183 189 185
3 189 186 185
3 185 186 184
3 190 191 192
3 192 191 193
3 194 195 192
3 192 195 190
3 195 196 190
3 190 196 191
3 196 197 191
3 191 197 193
3 197 194 193
3 193 194 192
3 198 199 200
3 200 199 201
3 202 203 200
3 200 203 198
3 203 204 198
3 198 204 199
3 204 205 199
3 199 205 201
3 205 202 201
3 201 202 200
3 206 207 208
3 208 207 209
3 210 211 208
3 208 211 206
3 211 212 206
3 206 212 207
3 212 213 207
3 207 213 209
3 213 210 209
3 209 210 208
3 214 215 216
3 216 215 217
3 218 219 216
3 216 219 214
3 219 220 214
3 214 220 215
3 220 221 215
3 215 221 217
3 221 218 217
3 217 218 216
3 222 223 224
3 224 223 225
3 226 227 224
3 224 227 222
3 227 228 222
3 222 228 223
3 228 229 223
3 223 229 225
3 229 226 225
3 225 226 224
3 230 231 232
3 232 231 233
3 234 235 232
3 232 235 230
3 235 236 230
3 230 236 231
3 236 237 231
3 231 237 233
3 237 234 233
3 233 234 232
3 238 239 240
3 240 239 241
3 242 243 240
3 240 243 238
3 243 244 238
3 238 244 239
3 244 245 239
3 239 245 241
3 245 242 241
3 241 242 240
3 246 247 248
3 248 247 249
3 250 251 248
3 248 251 246
3 251 252 246
3 246 252 247
3 252 253 247
3 247 253 249
3 253 250 249
3 249 250 248
3 254 255 256
3 256 255 257
3 258 259 256
3 256 259 254
3 259 260 254
3 254 260 255
3 260 261 255
3 255 261 257
3 261 258 257
3 257 258 256
3 262 263 264
3 264 263 265
3 266 267 264
3 264 267 262
3 267 268 262
3 262 268 263
3 268 269 263
3 263 269 265
3 269 266 265
3 265 266 264
3 270 271 272
3 272 271 273
3 274 275 272
3 272 275 270
3 275 276 270
3 270 276 271
3 276 277 271
3 271 277 273
3 277 274 273
3 273 274 272
3 278 279 280
3 280 279 281
3 282 283 280
3 280 283 278
3 283 284 278
3 278 284 279
3 284 285 279
3 279 285 281
3 285 282 281
3 281 282 280
3 286 287 288
3 288 287 289
3 290 291 288
3 288 291 286
3 291 292 286
3 286 292 287
3 292 293 287
3 287 293 289
3 293 290 289
3 289 290 288
3 294 295 296
3 296 295 297
3 298 299 296
3 296 299 294
3 299 300 294
3 294 300 295
3 300 301 295
3 295 301 297
3 301 298 297
3 297 298 296
3 302 303 304
3 304 303 305
3 0 306 1
3 1 306 302
3 1 302 4
3 4 302 6
3 6 302 304
3 6 304 8
3 8 304 307
3 8 307 10
3 10 307 0
3 0 307 306
3 308 306 309
3 309 306 307
3 43 308 45
3 45 308 309
3 45 309 47
3 47 309 49
3 49 309 51
3 51 309 53
3 53 309 55
3 55 309 57
3 57 309 59
3 59 309 61
3 61 309 63
3 63 309 305
3 63 305 65
3 65 305 67
3 67 305 69
3 69 305 71
3 71 305 73
3 73 305 75
3 75 305 77
3 77 305 79
3 79 305 81
3 81 305 303
3 81 303 83
3 83 303 85
3 85 303 87
3 87 303 89
3 89 303 91
3 91 303 93
3 93 303 95
3 95 303 97
3 97 303 99
3 99 303 308
3 99 308 101
3 101 308 103
3 103 308 105
3 105 308 107
3 107 308 109
3 109 308 111
3 111 308 113
3 113 308 43
3 242 253 243
3 243 253 252
3 243 252 305
3 305 252 251
3 305 251 260
3 260 251 261
3 261 251 250
3 261 250 292
3 292 250 283
3 292 283 293
3 293 283 282
3 293 282 307
3 307 282 309
3 309 282 285
3 309 285 274
3 274 285 275
3 275 285 284
3 275 284 242
3 242 284 253
3 242 245 275
3 275 245 276
3 276 245 309
3 276 309 277
3 277 309 274
3 309 245 305
3 305 245 244
3 305 244 243
3 250 253 283
3 283 253 284
3 258 269 259
3 259 269 268
3 259 268 304
3 304 268 267
3 304 267 266
3 261 291 258
3 258 291 300
3 258 300 269
3 269 300 299
3 269 299 266
3 266 299 307
3 266 307 304
3 305 260 304
3 304 260 259
3 300 291 301
3 301 291 290
3 301 290 307
3 307 290 293
3 292 291 261
3 299 298 307
3 307 298 301
3 178 189 179
3 179 189 188
3 179 188 302
3 302 188 187
3 302 187 196
3 196 187 197
3 197 187 186
3 197 186 228
3 228 186 219
3 228 219 229
3 229 219 218
3 229 218 308
3 308 218 306
3 306 218 221
3 306 221 210
3 210 221 211
3 211 221 220
3 211 220 178
3 178 220 189
3 178 181 211
3 211 181 212
3 212 181 306
3 212 306 213
3 213 306 210
3 306 181 302
3 302 181 180
3 302 180 179
3 186 189 219
3 219 189 220
3 194 205 195
3 195 205 204
3 195 204 303
3 303 204 203
3 303 203 202
3 197 227 194
3 194 227 236
3 194 236 205
3 205 236 235
3 205 235 202
3 202 235 308
3 202 308 303
3 302 196 303
3 303 196 195
3 236 227 237
3 237 227 226
3 237 226 308
3 308 226 229
3 228 227 197
3 235 234 308
3 308 234 237
